#!OML:ASF E:\Mandelcareful walks\Project 1\Capture day 1\Session 1\Subject1.ASF
:FULLY-SPECIFIED
:DEGREES
946
root -11.5908 15.502 -8.05983 -700.347 12.355 -717.15
lowerback 26.3834 2.37345 -0.94957
upperback 6.38475 2.60153 -2.65353
thorax -7.4187 1.2727 -3.21812
lowerneck -21.5612 17.2188 11.4507
upperneck 12.9893 24.7031 -20.5093
head 12.0271 10.0503 -4.34418
rclavicle -8.34896e-015 -1.0138e-014
rhumerus -25.3355 9.46946 -92.268
rradius 33.9691
rwrist -56.2321
rhand 6.95101 -37.5267
rfingers 7.12502
rthumb 32.2291 -64.6864
lclavicle -8.34896e-015 -1.0138e-014
lhumerus -24.1951 -83.8606 118.065
lradius 53.9452
lwrist 1.19695
lhand -15.7124 -10.8905
lfingers 7.12502
lthumb 10.4776 18.8284
rfemur -46.102 -3.98612 3.87009
rtibia 50.9989
rfoot -17.7059 -17.8413
rtoes -6.19366
lfemur -45.2579 9.13081 -20.2182
ltibia 57.2532
lfoot -24.8373 7.95053
ltoes -12.4657
947
root -11.5931 15.5117 -7.99596 -700.153 11.6181 -716.909
lowerback 26.0624 2.24181 -1.84966
upperback 6.30235 2.23901 -2.2682
thorax -7.41695 1.11084 -2.1487
lowerneck -21.2592 17.4418 10.7506
upperneck 12.5086 25.2626 -20.9307
head 11.8723 10.2874 -4.26292
rclavicle -4.07509e-014 8.94531e-015
rhumerus -25.2182 10.7983 -92.0583
rradius 34.3922
rwrist -56.3173
rhand 6.44426 -39.0537
rfingers 7.12502
rthumb 31.7465 -66.3101
lclavicle -4.07509e-014 8.94531e-015
lhumerus -19.7435 -83.0545 113.074
lradius 54.8357
lwrist 1.59191
lhand -15.9063 -11.109
lfingers 7.12502
lthumb 10.2906 18.6192
rfemur -47.0861 -4.0518 4.25146
rtibia 50.991
rfoot -17.3416 -17.8029
rtoes -5.1772
lfemur -44.8421 9.9682 -20.7961
ltibia 56.8764
lfoot -24.7597 8.56343
ltoes -15.5957
948
root -11.5433 15.5351 -7.91903 -700.476 11.7301 -716.524
lowerback 26.2553 1.7223 -1.05262
upperback 6.39141 1.77242 -2.37186
thorax -7.39721 0.880349 -2.57811
lowerneck -21.3484 17.4277 10.5818
upperneck 12.5159 25.2943 -20.948
head 11.8773 10.2851 -4.23331
rclavicle 0 -6.75868e-015
rhumerus -25.0814 10.5543 -92.0729
rradius 34.4283
rwrist -55.8434
rhand 7.01589 -39.2707
rfingers 7.12502
rthumb 32.2908 -66.4179
lclavicle 0 -6.75868e-015
lhumerus -18.8766 -83.603 111.544
lradius 55.7691
lwrist 2.20456
lhand -15.7234 -11.1674
lfingers 7.12502
lthumb 10.467 18.5521
rfemur -46.9833 -5.16007 4.60619
rtibia 50.8623
rfoot -16.5859 -17.5879
rtoes -7.31763
lfemur -43.7589 8.72278 -20.7621
ltibia 56.4983
lfoot -25.5503 8.41511
ltoes -11.5199
949
root -11.5594 15.5439 -7.85098 -700.489 11.0127 -716.443
lowerback 26.2344 1.91316 -0.987292
upperback 6.3078 2.01159 -2.54111
thorax -7.46244 0.990094 -2.88044
lowerneck -21.6165 17.3211 10.9185
upperneck 12.7694 25.0824 -20.9392
head 12.03 10.1648 -4.31621
rclavicle 5.76476e-015 -1.23246e-014
rhumerus -25.0396 9.96986 -92.4726
rradius 34.0774
rwrist -55.6511
rhand 7.4518 -37.0545
rfingers 7.12502
rthumb 32.7056 -64.1163
lclavicle 5.76476e-015 -1.23246e-014
lhumerus -20.9512 -84.5149 113.044
lradius 56.4508
lwrist 2.52045
lhand -15.474 -10.7043
lfingers 7.12502
lthumb 10.7075 19.0028
rfemur -47.7627 -5.12918 5.15493
rtibia 50.9738
rfoot -16.2718 -17.3474
rtoes -6.80654
lfemur -43.2216 9.72432 -21.0029
ltibia 56.194
lfoot -25.4963 8.65939
ltoes -12.9625
950
root -11.5804 15.5532 -7.77922 -700.281 10.2043 -716.208
lowerback 25.8675 1.96835 -1.3489
upperback 6.22748 1.99586 -2.51151
thorax -7.38216 0.986354 -2.6218
lowerneck -21.7067 17.3559 10.6992
upperneck 12.7667 25.2403 -21.1009
head 12.0742 10.2025 -4.29547
rclavicle 9.14409e-015 1.72943e-014
rhumerus -24.8664 10.1615 -92.5878
rradius 34.0049
rwrist -55.4502
rhand 7.50698 -37.0708
rfingers 7.12502
rthumb 32.7581 -64.1217
lclavicle 9.14409e-015 1.72943e-014
lhumerus -20.1695 -84.0099 112.366
lradius 56.2628
lwrist 2.30567
lhand -15.3229 -10.8138
lfingers 7.12502
lthumb 10.8533 18.8858
rfemur -48.6749 -5.05837 5.4019
rtibia 51.1606
rfoot -16.3973 -16.9693
rtoes -4.31236
lfemur -42.9363 10.8424 -21.4519
ltibia 55.9252
lfoot -25.3595 8.53928
ltoes -12.8185
951
root -11.6141 15.557 -7.7035 -700.058 9.24928 -716.036
lowerback 25.4253 2.15361 -1.73108
upperback 6.14428 2.14371 -2.50328
thorax -7.26138 1.06054 -2.423
lowerneck -21.8413 17.3368 10.5759
upperneck 12.8516 25.3093 -21.2554
head 12.1569 10.1953 -4.30669
rclavicle -4.47266e-014 3.81667e-014
rhumerus -24.5418 9.69984 -92.5721
rradius 33.6505
rwrist -54.8525
rhand 7.95404 -37.0772
rfingers 7.12502
rthumb 33.1833 -64.0386
lclavicle -4.47266e-014 3.81667e-014
lhumerus -19.2989 -83.739 111.638
lradius 56.0007
lwrist 1.80736
lhand -15.59 -11.3687
lfingers 7.12502
lthumb 10.5957 18.3442
rfemur -49.6259 -4.80497 5.63955
rtibia 51.5545
rfoot -16.4472 -16.7712
rtoes -3.08926
lfemur -42.645 11.8206 -21.6947
ltibia 55.738
lfoot -25.3623 8.32668
ltoes -12.8444
